# xmcd
#
# Track frame offsets:
# 150
# 16700
# 32576
# 48644
# 69171
# 85207
# 100165
# 116900
# 130456
# 147937
# 169412
# 183104
# 199332
# 219143
# 238131
# 257162
# 286163
#
# Disc length: 4440 seconds
#
#
# Revision: 0
# Processed by: cddbd v1.5.1PL0 Copyright (c) Steve Scherf et al.
# Submitted via: FreeRIP 2.92 
#
DISCID=f3115611
DTITLE=Popmusiikkia 2
DYEAR=2003
DGENRE=Pop
TTITLE0=Jore Marjaranta -  Haaveet kaatuu
TTITLE1=Suurl‰hettil‰‰t - Mit‰ miehen tulee olla?
TTITLE2=Sakari Kuosmanen - Laulajan helmi
TTITLE3=Yˆ - Sano ett‰ j‰‰t
TTITLE4=Mikko Kuustonen - Ainoain
TTITLE5=Agents and Jorma K‰‰ri‰inen - Sai kaiken muuttumaan
TTITLE6=Esa Kaartamo - Kukaties
TTITLE7=Ville Leinonen and Valumo - Pime‰n syd‰meen
TTITLE8=Irina - Juulian totuudet
TTITLE9=Harri Marstio - Kalpeaakin Kalpeampaa
TTITLE10=Topi Sorsakoski and Agents - Maailma ilman rakkautta
TTITLE11=Kaartamo and Kettunen and Kuustonen - Ilona
TTITLE12=Ismo Alanko s‰‰tiˆ - Kadonnut suudelma
TTITLE13=Veeti and Vuokko Hovatta - Vain yksi suudelma
TTITLE14=Tapio Liinoja - Lumena
TTITLE15=Canto Finlandia - Menn‰‰n hiljaa markkinoille
TTITLE16=Savee
EXTD=TRG - For private use
EXTT0=
EXTT1=
EXTT2=
EXTT3=
EXTT4=
EXTT5=
EXTT6=
EXTT7=
EXTT8=
EXTT9=
EXTT10=
EXTT11=
EXTT12=
EXTT13=
EXTT14=
EXTT15=
EXTT16=
PLAYORDER=
